<svg width="46" height="44" viewBox="0 0 46 44" fill="none" xmlns="http://www.w3.org/2000/svg">
    <path
        d="M22.75 0C20.3323 0 18.9308 1.60494 18.24 3.08594C14.509 3.80994 8.00178 6.95619 7.19622 14.7422C6.89323 19.3342 6.32709 27.8838 3.1669 29.3008C2.94768 29.3988 2.74575 29.5332 2.57513 29.6992C2.31144 29.9542 0 32.294 0 36C0 37.104 0.926545 38 2.06818 38H15.778C16.186 41.3729 19.1542 44 22.75 44C26.3458 44 29.314 41.3729 29.722 38H43.4318C44.5735 38 45.5 37.104 45.5 36C45.5 32.294 43.1886 29.9542 42.9249 29.6992C42.7542 29.5342 42.5523 29.3978 42.3331 29.2988C39.1739 27.8818 38.6059 19.3339 38.2957 14.6699C37.4943 6.94592 30.988 3.80698 27.258 3.08398C26.5683 1.60398 25.1677 0 22.75 0ZM22.75 4C23.3736 4 23.5429 4.61986 23.6669 5.25586C23.85 6.19086 24.6987 6.91406 25.7048 6.91406C25.7814 6.91406 33.4134 7.65005 34.1755 14.998C34.7018 22.932 35.5623 30.2508 40.1619 32.7168C40.3553 32.9568 40.6749 33.401 40.9355 34H4.56454C4.82617 33.397 5.14585 32.9538 5.33405 32.7188C9.93679 30.2547 10.7983 22.9353 11.3184 15.0703C12.0868 7.65031 19.7186 6.91406 19.7952 6.91406C20.7848 6.91406 21.648 6.15639 21.829 5.27539C21.9562 4.66039 22.1254 4 22.75 4ZM19.9951 38H25.5049C25.1489 39.1523 24.0558 40 22.75 40C21.4442 40 20.3511 39.1523 19.9951 38Z"
        fill="black" />
</svg>