<svg width="48" height="45" viewBox="0 0 48 45" fill="none" xmlns="http://www.w3.org/2000/svg">
<path d="M17.1621 40.2H30.4172C29.2729 42.555 26.7357 44.2 23.7902 44.2C20.8448 44.2 18.3064 42.555 17.1621 40.2ZM44.6924 29.899C44.9656 30.154 47.3614 32.494 47.3614 36.2C47.3614 37.304 46.4014 38.2 45.2185 38.2H2.35979C1.17689 38.2 0.216858 37.304 0.216858 36.2C0.216858 32.494 2.61266 30.154 2.88588 29.899C3.06268 29.733 3.27054 29.598 3.49769 29.5C6.7721 28.083 7.35926 19.535 7.6732 14.943C8.50787 7.157 15.2506 4.009 19.1165 3.285C19.8322 1.804 21.2841 0.199997 23.7891 0.199997C26.2942 0.199997 27.7461 1.804 28.4607 3.284C32.3255 4.007 39.0672 7.146 39.8976 14.87C40.219 19.534 40.8062 28.082 44.0795 29.499C44.3067 29.598 44.5156 29.734 44.6924 29.899Z" fill="#F29D38"/>
</svg>
