<svg xmlns="http://www.w3.org/2000/svg" xml:space="preserve" width="128" height="128" data-id="lg_PkZBioyMTJQ4kRb1Vc" data-version="1" viewBox="0 0 128 128"><g data-padding="20"><g transform="translate(54.068 52.843)scale(.17736)"><rect width="375.842" height="192.688" x="-418.965" y="-128.481" fill="none" rx="0" ry="0" transform="matrix(.97 0 0 .97 377.92 94.08)"/><path fill="#3a3a3a" d="M-15.36-.977v53.524h-7.888V-.977Zm-1.146 6.557V-.977h14.172q8.933 0 13.735 4.374 4.801 4.375 4.801 13.115 0 7.895-4.947 12.27-4.947 4.365-13.59 4.365h-14.17v-5.985h13.22q5.704 0 8.982-2.658 3.28-2.667 3.28-8.08 0-5.616-3.23-8.225-3.24-2.62-9.03-2.62Zm49.043 46.958h-7.982V-.986h18.73q6.84 0 11.64 1.425t7.372 4.802q2.561 3.376 2.561 9.273 0 4.084-1.377 7.314t-4.132 5.083q-2.755 1.862-6.849 1.862 3.143 0 4.9 1.184 1.755 1.193 2.61 3.133.862 1.95 1.143 4.142.281 2.182.427 4.277.145 2.086.62 3.61.476 1.522 1.66 2.094 1.192.572 3.472-.29v4.752q-1.33 1.144-3.424 1.571-2.086.427-4.23-.28-2.134-.719-3.608-2.95t-1.474-6.509q0-3.996-.34-6.654-.33-2.667-1.465-4.142-1.144-1.474-3.52-2.182-2.377-.718-6.422-.766-4.035-.04-10.31.145Zm0-46.967v18.45h11.03q4.85 0 7.983-.622 3.143-.62 4.704-2.57 1.572-1.95 1.572-5.752 0-4.462-1.9-6.46t-5.51-2.522q-3.619-.524-8.944-.524ZM98.8 53.867q-12.833 0-19.585-7.556-6.75-7.556-6.75-20.39 0-8.468 2.9-14.695 2.9-6.218 8.75-9.69 5.84-3.473 14.685-3.473 12.833 0 19.535 7.556t6.703 20.302q0 8.265-2.997 14.59t-8.798 9.835q-5.79 3.521-14.443 3.521m-.097-7.605q6.18 0 10.31-2.619 4.143-2.609 6.18-7.226 2.046-4.608 2.046-10.496 0-5.994-1.998-10.602t-6.13-7.226q-4.132-2.61-10.408-2.61-9.128 0-13.833 5.51t-4.704 14.928q0 5.791 1.998 10.408 1.998 4.608 6.13 7.266 4.133 2.667 10.41 2.667m50.1 7.235q-3.328 0-6.325-.95t-5.277-2.852q-2.28-1.9-3.657-4.995-1.377-3.085-1.377-7.362h7.41q0 2.182.757 4.316.766 2.144 2.716 3.57t5.558 1.426q4.472 0 6.654-2.522 2.183-2.513 2.183-8.886V.74h7.896V34.1q0 4.47-.815 8.08-.805 3.617-2.658 6.13-1.853 2.521-5.034 3.85-3.192 1.34-8.032 1.34m16.54-48.296h-18.635v-6.18h18.634Zm49.14 47.345h-38.025V-.977h37.073v6.848h-29.273v16.256h22.814v6.557h-22.814v17.393h30.225Zm31.853.95q-7.41 0-13.396-3.095-5.994-3.084-9.506-9.224-3.52-6.13-3.52-15.249.096-9.03 3.52-15.258 3.415-6.227 9.506-9.418 6.082-3.182 13.784-3.182 6.935 0 12.067 2.522 5.131 2.522 8.322 6.984 3.182 4.472 4.23 10.457h-8.178q-.756-4.56-3.23-7.314-2.473-2.765-5.946-3.997-3.463-1.232-7.265-1.232-9.03 0-13.978 5.18t-4.947 14.783q0 10.07 4.85 15.345 4.85 5.277 13.784 5.277 4.18 0 7.75-1.329 3.56-1.329 6.034-4.132t3.23-7.275h8.274q-1.048 5.898-4.23 10.457-3.18 4.56-8.458 7.13t-12.697 2.57M292.246.74h7.886v51.808h-7.886Zm24.337 5.132h-40.876V-.977h40.876ZM-15.36 78.514v53.515h-7.887V78.514Zm-1.145 6.557v-6.557h14.172q8.933 0 13.735 4.375t4.801 13.114q0 7.896-4.947 12.261-4.947 4.375-13.59 4.375h-14.17v-5.985h13.22q5.704 0 8.982-2.668 3.28-2.657 3.28-8.08 0-5.606-3.23-8.216-3.24-2.619-9.03-2.619Zm62.255 48.296q-11.019 0-16.868-6.324-5.85-6.324-5.85-17.828v-30.7h8.275v30.612q0 4.656 1.183 7.838 1.194 3.181 3.192 5.131 1.988 1.95 4.607 2.852 2.61.902 5.461.902 4.278 0 7.557-1.562 3.288-1.57 5.14-5.276 1.853-3.706 1.853-9.885V78.514h8.265v30.7q0 11.7-5.752 17.926-5.743 6.228-17.063 6.228m42.02-2.095h-7.885V78.515h7.886Zm28.043.757H79.884v-6.838h35.928Zm28.43 1.135q-4.374 0-8.458-1.048t-7.41-3.23q-3.328-2.183-5.326-5.655t-2.095-8.323h7.983q0 .291.194 1.523.194 1.242 1 2.852.804 1.62 2.472 3.143 1.66 1.513 4.656 2.512 2.998 1 7.557 1 3.52 0 5.897-.758 2.377-.766 3.803-1.998t2.037-2.57q.62-1.33.62-2.377 0-2.939-1.852-4.753-1.853-1.804-4.996-2.9-3.133-1.086-6.887-1.988-3.754-.903-7.459-1.999-3.715-1.096-6.8-2.9-3.094-1.804-4.8-4.704t-1.524-7.46q.29-4.374 3.046-7.517 2.755-3.133 7.556-4.802 4.802-1.658 10.98-1.658 5.607 0 10.312 1.998t7.604 5.936q2.9 3.948 2.804 10.03h-7.702q.097-3.327-1.33-5.374-1.425-2.037-3.656-3.18-2.23-1.136-4.607-1.573-2.377-.427-4.278-.427-5.326 0-8.798 1.95t-3.56 5.47q-.097 3.037 1.804 4.85 1.901 1.805 5.034 2.853 3.143 1.038 6.946 1.9 3.802.854 7.507 1.902 3.706 1.038 6.79 2.803 3.095 1.756 4.85 4.705 1.766 2.95 1.572 7.605-.194 4.462-3.046 7.604-2.852 3.134-7.605 4.85-4.753 1.708-10.835 1.708m68.63-1.136h-38.025V78.514h37.073v6.848h-29.284v16.248h22.814v6.567h-22.813v17.392h30.235ZM-221.72 65.685h45.504l17.775 63.753c.237.948 1.185 1.66 2.37 1.66s1.896-.712 2.37-1.66l34.128-123.003 15.88 57.354c.236.948 1.184 1.66 2.37 1.66h47.4c1.421 0 2.37-.949 2.37-2.37s-.949-2.37-2.37-2.37h-45.742L-117.44-3.046c-.237-.948-1.185-1.659-2.37-1.659s-1.896.711-2.37 1.66l-33.89 123.002-15.88-57.354c-.237-.948-1.185-1.659-2.37-1.659h-47.4c-1.422 0-2.37.948-2.37 2.37s1.185 2.37 2.37 2.37"/></g><path fill="transparent" stroke="transparent" stroke-width=".184" d="M12.5 46.803h103v34.394h-103z"/></g></svg>